<?xml version="1.0" encoding="UTF-8"?>
<svg width="91px" height="80px" viewBox="0 0 91 80" version="1.1" xmlns="http://www.w3.org/2000/svg" xmlns:xlink="http://www.w3.org/1999/xlink">
    <!-- Generator: Sketch 50.2 (55047) - http://www.bohemiancoding.com/sketch -->
    <title>trinity-logo-icon@1x</title>
    <desc>Created with Sketch.</desc>
    <defs></defs>
    <g id="Page-1" stroke="none" stroke-width="1" fill="none" fill-rule="evenodd">
        <g id="Group">
            <g>
                <polygon id="Fill-1" fill="#2281AE" points="45.2916 26.4798987 60.3886 26.4798987 52.8396 39.7204051 45.2916 52.9598987 37.7426 39.7204051 30.1946 26.4798987"></polygon>
                <polygon id="Fill-2" fill="#2281AE" points="45.2916 0.000303797468 37.7426 13.2397975 30.1946 26.4803038 45.2916 26.4803038 60.3886 26.4803038 52.8396 13.2397975"></polygon>
                <polygon id="Fill-3" fill="#1A2E4C" points="45.2916 52.9594937 30.1946 52.9594937 37.7426 66.2 45.2916 79.4405063 52.8396 66.2 60.3886 52.9594937"></polygon>
                <polygon id="Fill-4" fill="#1A2E4C" points="45.2916 52.9597975 30.1946 52.9597975 37.7426 39.7203038 45.2916 26.4797975 52.8396 39.7203038 60.3886 52.9597975"></polygon>
                <polygon id="Fill-5" fill="#254575" points="60.3883 52.9597975 45.2913 52.9597975 52.8403 39.7203038 60.3883 26.4797975 67.9373 39.7203038 75.4853 52.9597975"></polygon>
                <polygon id="Fill-6" fill="#2281AE" points="75.4857 26.4798987 60.3877 26.4798987 67.9377 39.7193924 75.4857 52.9598987 83.0337 39.7193924 90.5827 26.4798987"></polygon>
                <polygon id="Fill-7" fill="#22A6D3" points="75.4857 0.000303797468 67.9377 13.2397975 60.3877 26.4803038 75.4857 26.4803038 90.5827 26.4803038 83.0337 13.2397975"></polygon>
                <polygon id="Fill-8" fill="#2281AE" points="15.0975 26.4798987 -0.0005 26.4798987 7.5485 39.7193924 15.0975 52.9598987 22.6455 39.7193924 30.1945 26.4798987"></polygon>
                <polygon id="Fill-9" fill="#22A6D3" points="15.0975 0.000303797468 7.5485 13.2397975 -0.0005 26.4803038 15.0975 26.4803038 30.1945 26.4803038 22.6455 13.2397975"></polygon>
                <polygon id="Fill-10" fill="#254575" points="30.1944 52.9597975 15.0974 52.9597975 22.6454 39.7203038 30.1944 26.4797975 37.7424 39.7203038 45.2914 52.9597975"></polygon>
            </g>
        </g>
    </g>
</svg>